# xmcd
#
# Track frame offsets:
#	150
#	43163
#	66368
#	88890
#	104678
#	137007
#	155626
#	172406
#	184914
#
# Disc length: 2769 seconds
#
# Revision: 5
# Processed by: cddbd v1.5.2PL0 Copyright (c) Steve Scherf et al.
# Submitted via: EasyCDDAExtractor 15.3.0.1
#
DISCID=8d0acf09
DTITLE=Ednita Nazario - Apasionada Live - CD 2
DYEAR=2006
DGENRE=Latin
TTITLE0=Medley Rock (Metamorfosis, Me Quedo Aqui Abajo, Alma De Gitana, Eres L
TTITLE0=ibre)
TTITLE1=Una Y Otra Vez
TTITLE2=Vengada
TTITLE3=A Que Pides Mas
TTITLE4=Quiero Que Me Hagas El Amor
TTITLE5=Si No Me Amas
TTITLE6=Tu, Sin Mi
TTITLE7=Sobrevivo (Encore)
TTITLE8=Te He Querido, Te He Llorado
EXTD=
EXTT0=
EXTT1=
EXTT2=
EXTT3=
EXTT4=
EXTT5=
EXTT6=
EXTT7=
EXTT8=
PLAYORDER=
